<svg width="96" height="96" viewBox="0 0 96 96" fill="none" xmlns="http://www.w3.org/2000/svg">
    <path d="M63 28.0193C68.7193 31.3213 73.1891 36.4182 75.7164 42.5195C78.2436 48.6209 78.687 55.3856 76.9778 61.7646C75.2685 68.1436 71.5022 73.7804 66.2629 77.8006C61.0235 81.8209 54.604 84 48 84C41.396 84.0001 34.9765 81.8209 29.7372 77.8007C24.4978 73.7804 20.7315 68.1436 19.0222 61.7646C17.313 55.3856 17.7564 48.6209 20.2836 42.5196C22.8109 36.4182 27.2808 31.3213 33 28.0193" stroke="#1C1E2E" stroke-width="3" stroke-linecap="round"/>
    <g clip-path="url(#clip0_57_3443)">
        <path d="M47 56.923L34.0707 62.0947L47 36.2361V56.923Z" stroke="#1C1E2E" stroke-width="2"/>
        <path d="M48 32L64 64L48 57.6V32Z" fill="#1C1E2E"/>
    </g>
    <path d="M51.9375 21.625H52.1562V8.82812C52.1562 8.53646 52.0833 8.31771 51.9375 8.17188C51.7917 8.02604 51.5365 7.95312 51.1719 7.95312H50.2969V7.29688H54.6719V7.95312H53.7969C53.5052 7.95312 53.25 8.02604 53.0312 8.17188C52.8854 8.31771 52.8125 8.53646 52.8125 8.82812V26H52.1562L43.8438 9.70312H43.625V24.4688C43.625 24.7604 43.6979 24.9792 43.8438 25.125C44.0625 25.2708 44.3177 25.3438 44.6094 25.3438H45.4844V26H41.1094V25.3438H41.9844C42.349 25.3438 42.6042 25.2708 42.75 25.125C42.8958 24.9792 42.9688 24.7604 42.9688 24.4688V8.82812C42.9688 8.53646 42.8958 8.31771 42.75 8.17188C42.6042 8.02604 42.349 7.95312 41.9844 7.95312H41.3281V7.29688H44.5L51.9375 21.625Z" fill="#1C1E2E"/>
    <defs>
        <clipPath id="clip0_57_3443">
            <rect width="36" height="36" fill="white" transform="translate(30 30)"/>
        </clipPath>
    </defs>
</svg>
